[img]http://img16.imageshack.us/img16/9582/badxa.jpg[/img]
[code]
General:
#######################################################################

Complete name                    : Bad Teacher 2011 R5 LINE XVID AC3 - SCR0N.avi
Format                           : AVI
Format/Info                      : Audio Video Interleave
File size                        : 1.29 GiB
Duration                         : 1h 31mn
Overall bit rate                 : 2 009 Kbps

#######################################################################
Video:
#######################################################################

ID                               : 0
Format                           : MPEG-4 Visual
Format profile                   : Advanced Simple@L5
Format settings, BVOP            : Yes
Format settings, QPel            : No
Format settings, GMC             : No warppoints
Format settings, Matrix          : Default (H.263)
Muxing mode                      : Packed bitstream
Codec ID                         : XVID
Codec ID/Hint                    : XviD
Duration                         : 1h 31mn
Bit rate                         : 1 694 Kbps
Width                            : 720 pixels
Height                           : 384 pixels
Display aspect ratio             : 1.875
Frame rate                       : 24.000 fps
Original frame rate              : 25.000 fps
Color space                      : YUV
Chroma subsampling               : 4:2:0
Bit depth                        : 8 bits
Scan type                        : Progressive
Bits/(Pixel*Frame)               : 0.255
Stream size                      : 1.09 GiB (84%)


#######################################################################
Audio 1:
#######################################################################

ID                               : 1
Format                           : AC-3
Format/Info                      : Audio Coding 3
Mode extension                   : CM (complete main)
Codec ID                         : 2000
Duration                         : 1h 28mn
Bit rate mode                    : Constant
Bit rate                         : 320 Kbps
Channel(s)                       : 2 channels
Channel positions                : Front: L R
Sampling rate                    : 44.1 KHz
Bit depth                        : 16 bits
Stream size                      : 202 MiB (15%)
Alignment                        : Aligned on interleaves
Interleave, duration             : 73 ms (1.74 video frames)
Interleave, preload duration     : 208 ms




#######################################################################
Cast:
#######################################################################

Cameron Diaz as Elizabeth Halsey 
Lucy Punch as Amy Squirrel 
Jason Segel as Russell Gettis 
Justin Timberlake as Scott Delacorte 
Phyllis Smith as Lynn Davies 
John Michael Higgins as Principal Wally Snur 
Dave Allen as Sandy Pinkus (as Dave &#x27;Gruber&#x27; Allen) 
Jillian Armenante as Ms. Pavicic 
Matthew J. Evans as Garrett Tiara 
Kaitlyn Dever as Sasha Abernathy 


SOURCE
Video : russian dvd5
Audio : sprunk  thnx guys

IMDB : www.imdb.com/title/tt1284575/


SCR0N is looking for silver supplier,cammers,syncers,Audio and anymore stuff.....
If yall got anything to offer...holler us at scron@hushmail.com 
[/code]
Screens:
[img]http://img812.imageshack.us/img812/7458/33988886.jpg[/img]
[img]http://img607.imageshack.us/img607/4823/89225203.jpg[/img]
[img]http://img64.imageshack.us/img64/4590/29363673.jpg[/img]
[img]http://img837.imageshack.us/img837/555/76416281.jpg[/img]